<?xml version="1.0" encoding="UTF-8" standalone="no"?>
<svg
   xmlns:dc="http://purl.org/dc/elements/1.1/"
   xmlns:cc="http://creativecommons.org/ns#"
   xmlns:rdf="http://www.w3.org/1999/02/22-rdf-syntax-ns#"
   xmlns:svg="http://www.w3.org/2000/svg"
   xmlns="http://www.w3.org/2000/svg"
   xmlns:sodipodi="http://sodipodi.sourceforge.net/DTD/sodipodi-0.dtd"
   xmlns:inkscape="http://www.inkscape.org/namespaces/inkscape"
   inkscape:version="1.0 (4035a4fb49, 2020-05-01)"
   sodipodi:docname="signature.svg"
   viewBox="0 0 173.59918 54.659817"
   height="54.659817"
   width="173.59918"
   id="svg2"
   version="1.1">
  <metadata
     id="metadata8">
    <rdf:RDF>
      <cc:Work
         rdf:about="">
        <dc:format>image/svg+xml</dc:format>
        <dc:type
           rdf:resource="http://purl.org/dc/dcmitype/StillImage" />
        <dc:title />
      </cc:Work>
    </rdf:RDF>
  </metadata>
  <defs
     id="defs6" />
  <sodipodi:namedview
     inkscape:current-layer="g10"
     inkscape:window-maximized="1"
     inkscape:window-y="0"
     inkscape:window-x="0"
     inkscape:cy="21.65117"
     inkscape:cx="78.021754"
     inkscape:zoom="3.8531736"
     showgrid="false"
     id="namedview4"
     inkscape:window-height="704"
     inkscape:window-width="1366"
     inkscape:pageshadow="2"
     inkscape:pageopacity="0"
     guidetolerance="10"
     gridtolerance="10"
     objecttolerance="10"
     borderopacity="1"
     bordercolor="#666666"
     pagecolor="#ffffff"
     inkscape:document-rotation="0" />
  <g
     id="g10"
     inkscape:label="Image"
     inkscape:groupmode="layer">
    <path
       id="path837"
       d="M 7.8759485,54.98262 C 7.3167036,54.942098 6.2565903,54.80464 5.804006,54.713963 4.515175,54.455744 3.316015,53.856228 2.2880303,52.956166 1.7734011,52.505578 1.3758512,52.041413 0.936044,51.377632 0.54076212,50.781051 0.35955741,50.388807 0.24595254,49.88384 0.08095218,49.15042 0.11723601,45.423043 0.30196785,44.12948 0.66194797,41.608762 2.3322491,37.22933 4.8623663,32.172382 c 1.4824729,-2.963021 2.7054572,-5.104415 3.7705713,-6.602113 1.5989534,-2.248352 4.7796434,-5.66925 6.6674714,-7.171007 0.740669,-0.589198 1.143975,-0.744131 1.948612,-0.748575 1.016999,-0.0056 1.577233,0.408661 1.578348,1.167146 3.95e-4,0.281692 -0.139361,0.901179 -0.269969,1.196507 -0.237597,0.537249 -0.705987,0.889345 -1.02214,0.768359 -0.344667,-0.131899 -0.370349,-0.569016 -0.06596,-1.122776 0.336923,-0.612956 0.17128,-0.91662 -0.459261,-0.841942 -0.353813,0.0419 -0.764457,0.215416 -1.104965,0.466888 -0.435533,0.321648 -2.149077,2.050607 -3.018632,3.045786 -1.371253,1.569358 -2.102845,2.526512 -3.0423548,3.980363 -0.2334556,0.361263 -0.631794,0.934334 -0.8851955,1.273492 -0.7859692,1.051954 -1.2888967,1.94183 -2.7601949,4.883864 -1.7408217,3.480979 -2.5838568,5.361482 -3.184655,7.103803 -0.1450185,0.420555 -0.4008539,1.097636 -0.5685233,1.504625 -0.6011337,1.45915 -0.7868596,2.124767 -0.9841971,3.527235 -0.2935445,2.086206 -0.2371375,4.102756 0.1386814,4.957863 0.5072044,1.154052 1.9523884,2.789885 2.8800138,3.25995 0.2269777,0.115017 1.5803277,0.433509 2.6806224,0.630852 1.6239658,0.291261 3.179934,0.299189 5.081192,0.02589 5.431581,-0.780747 14.51341,-3.679508 17.638898,-5.630021 2.038036,-1.27187 4.628305,-3.532531 5.062903,-4.418655 0.101593,-0.207144 0.133328,-0.358729 0.152722,-0.729504 0.05614,-1.073331 -0.397785,-1.790043 -1.452559,-2.293466 -0.489996,-0.233865 -0.883662,-0.341519 -1.247888,-0.341255 -0.94179,6.86e-4 -2.966513,0.56556 -4.703807,1.312313 -1.480991,0.636584 -2.269062,0.828569 -3.41327,0.83152 -0.939216,0.0024 -1.222836,-0.0722 -1.561457,-0.410817 -0.433248,-0.433248 -0.365212,-0.728318 0.289639,-1.256156 0.512132,-0.4128 1.396782,-0.994878 1.876411,-1.234632 2.786944,-1.393117 6.602104,-1.540562 10.234909,-0.39555 0.925554,0.291722 1.110838,0.463118 1.630636,1.508411 0.484485,0.974282 0.788549,1.373268 1.271829,1.668864 0.429944,0.262973 0.660436,0.55859 0.880535,1.129326 0.219812,0.569991 0.317059,1.170362 0.280285,1.730387 -0.09015,1.372939 -0.09034,1.406794 -0.0096,1.722013 0.09211,0.359556 0.242213,0.59659 0.377783,0.59659 0.05598,0 0.141944,-0.07563 0.210282,-0.184995 0.121931,-0.195134 0.80637,-1.495929 2.057091,-3.909559 1.297389,-2.503686 2.533193,-4.750502 3.239864,-5.890394 1.159826,-1.870852 2.83869,-3.586571 3.699503,-3.780716 0.207933,-0.0469 0.468425,0.02082 0.633468,0.164671 0.178248,0.15536 0.208188,0.415172 0.293947,2.550632 0.129836,3.233243 0.200268,3.940198 0.473907,4.756956 0.260498,0.777529 1.38533,2.837052 1.826427,3.344107 l 0.18388,0.211373 0.105294,-0.235202 c 0.05792,-0.129361 0.168568,-0.52895 0.245891,-0.887975 0.159845,-0.742149 0.284453,-1.097704 0.615929,-1.757467 0.689355,-1.372089 1.677124,-2.604781 2.320398,-2.895754 0.571294,-0.258416 0.834721,-0.19313 1.198106,0.29693 0.440055,0.593463 0.486324,0.832607 0.279993,1.447249 -0.09193,0.273879 -1.386125,3.032465 -1.585051,3.378571 -0.07934,0.138047 0.227248,-0.193097 1.895467,-2.047277 2.196116,-2.440925 2.82689,-3.158073 3.794733,-4.314367 0.392747,-0.469218 0.846202,-0.969678 1.007675,-1.112133 0.595195,-0.525087 1.077834,-0.668179 1.346733,-0.399278 0.173426,0.173427 0.203055,0.298267 0.203055,0.855583 0,0.597566 -0.02842,0.690457 -0.290269,0.948596 -0.186751,0.18411 -0.239596,0.28739 -0.398484,0.7788 -0.174102,0.538441 -0.429218,1.536937 -0.768676,3.008473 -0.262767,1.139078 -0.260611,2.614669 0.0044,3.050531 0.110696,0.182029 0.219665,0.195808 0.483606,0.06115 0.659884,-0.336648 2.890991,-2.239309 4.17713,-3.562203 1.132509,-1.164874 2.758002,-3.147025 4.464972,-5.444653 1.654027,-2.226363 2.514317,-3.592715 2.514317,-3.993345 0,-0.611118 -1.046889,-0.475733 -7.572718,0.979315 -6.030931,1.344703 -7.364498,1.485888 -8.608166,0.911351 -0.448191,-0.207049 -0.690648,-0.461151 -0.690648,-0.723813 0,-0.325223 0.874765,-0.482331 3.354574,-0.602487 2.910221,-0.14101 4.709574,-0.416678 7.895433,-1.209613 3.042016,-0.757135 5.028219,-1.20868 7.915461,-1.799509 4.563853,-0.933921 9.828703,-2.200154 18.252827,-4.38993 1.79075,-0.46549 4.164229,-1.077776 5.274396,-1.360635 1.110183,-0.28286 2.022583,-0.519846 2.027573,-0.526636 0.005,-0.0068 0.10297,-0.855922 0.21774,-1.88696 0.24177,-2.172115 0.56341,-4.786833 0.66727,-5.42448 0.0396,-0.243073 0.0588,-0.453967 0.0426,-0.468653 -0.0161,-0.01469 -0.0395,0.0019 -0.052,0.03679 -0.0568,0.1594 -0.28338,0.358367 -0.46321,0.406789 -0.38073,0.10252 -0.63528,-0.08157 -0.63528,-0.459422 0,-0.599649 0.42702,-1.721987 0.82116,-2.158254 0.14329,-0.158608 0.21044,-0.195869 0.35297,-0.195869 0.62864,0 1.61221,1.108786 1.67551,1.888825 0.025,0.308126 -0.16412,1.837339 -0.43545,3.520826 -0.44574,2.765648 -0.54796,3.665467 -0.45584,4.0126 0.0277,0.104194 0.0968,0.201142 0.17461,0.244815 0.14192,0.07966 -0.0953,0.135359 2.40558,-0.564883 0.55622,-0.15574 1.11755,-0.336875 1.2474,-0.402521 0.52665,-0.266242 0.85413,-0.702025 1.62557,-2.163177 1.24698,-2.361844 3.2904,-6.635601 4.57593,-9.570401 1.17199,-2.6756 1.83145,-4.011725 2.91318,-5.902364 1.94204,-3.39426198 2.13629,-3.60860998 3.19291,-3.52336798 1.14754,0.09258 1.34327,0.294227 1.34327,1.38382498 0,1.317437 -0.82463,3.258052 -3.26004,7.671917 -3.08408,5.589464 -5.35104,10.03999 -5.50424,10.805999 l -0.0322,0.161093 0.29137,-0.03389 c 0.47939,-0.05576 1.42685,-0.260752 3.25128,-0.703439 4.89612,-1.18801 8.31832,-1.937948 17.75951,-3.891812 0.73258,-0.151609 2.14674,-0.440553 3.14257,-0.6421 4.10903,-0.831623 5.33223,-1.08316 7.09381,-1.458754 1.90276,-0.405695 3.8954,-0.866269 4.32173,-0.998914 0.13281,-0.04132 0.37565,-0.130969 0.53963,-0.199216 0.31967,-0.133036 0.40125,-0.147731 2.09445,-0.377281 1.13982,-0.154527 4.6098,-0.671542 7.1038,-1.058444 0.77328,-0.119961 2.06084,-0.319701 2.86125,-0.443866 0.80041,-0.124166 2.50977,-0.390187 3.79856,-0.591158 3.20842,-0.50031 5.97242,-0.920328 7.63331,-1.159957 1.308,-0.188716 1.402,-0.196199 1.54374,-0.1229 0.26113,0.135035 0.31482,0.408315 0.11636,0.592243 -0.29771,0.27591 -0.92669,0.41799 -4.01488,0.906921 -11.9892,1.898159 -12.66024,2.012707 -16.52621,2.821078 -3.38566,0.707936 -3.41532,0.716161 -3.74086,1.037085 -0.49288,0.485909 -0.57,0.956256 -0.94541,5.766359 -0.13659,1.750052 -0.30352,3.829333 -0.37096,4.620624 -0.13612,1.596951 -0.14645,2.026369 -0.0712,2.957002 0.0416,0.513754 0.24595,1.662373 0.37463,2.105329 0.0196,0.06732 0.48931,-0.366019 2.00733,-1.85171 2.31417,-2.2649 3.11436,-3.035039 3.85742,-3.712587 0.84282,-0.768509 0.97058,-0.862748 1.16966,-0.862748 0.34861,0 0.41555,0.31994 0.19861,0.94931 -0.14856,0.431016 -0.3677,0.788643 -1.05064,1.714616 -0.67595,0.91648 -0.90172,1.560763 -0.71671,2.045213 0.10002,0.261891 0.65116,0.79804 1.09184,1.062135 0.67381,0.403815 1.46692,0.50754 2.24247,0.293278 1.18337,-0.326931 2.61109,-1.405985 3.3714,-2.548066 0.74896,-1.125022 1.11272,-2.175043 1.63106,-4.708133 0.6034,-2.948753 1.03779,-4.18801 1.56327,-4.459744 0.27932,-0.144439 0.6694,0.100208 0.90543,0.567856 0.72785,1.442071 2.03603,8.534344 2.54371,13.790627 0.27725,2.870558 0.11774,5.939851 -0.44829,8.625846 -0.37776,1.792587 -0.79323,2.684086 -1.68353,3.612482 -1.20832,1.260025 -2.39402,1.688868 -3.35775,1.214428 -0.58441,-0.287706 -1.37141,-1.065119 -2.21157,-2.184634 -0.53668,-0.71512 -0.74055,-1.070601 -1.2566,-2.191041 -1.22708,-2.66425 -1.54783,-3.678843 -1.25545,-3.971223 0.16714,-0.167136 0.33671,-0.126416 0.59666,0.143276 0.24327,0.252386 0.70097,0.987225 0.91171,1.463761 0.60204,1.361297 2.60035,4.237628 3.43327,4.941781 0.2142,0.181081 0.27929,0.209656 0.47744,0.209622 0.31432,-4.9e-5 0.71081,-0.196953 1.31809,-0.654571 0.57412,-0.432626 1.02847,-0.898754 1.2451,-1.277381 0.44661,-0.780591 0.85854,-2.671044 1.0732,-4.925152 0.19798,-2.078889 -0.0915,-6.210423 -0.77077,-11.001028 -0.36872,-2.600335 -0.85571,-5.024521 -1.15039,-5.726435 -0.26426,-0.629439 -0.45954,-0.222012 -0.67063,1.399149 -0.14386,1.104758 -0.22989,1.592434 -0.40109,2.273544 -0.44493,1.770124 -1.19889,3.427722 -2.02289,4.447378 -0.75725,0.937059 -2.49817,1.977217 -4.01503,2.398888 -1.23002,0.341929 -2.70249,-0.118714 -3.74505,-1.171585 -0.3577,-0.361233 -0.56278,-0.726003 -0.79459,-1.413334 -0.0801,-0.23741 -0.16388,-0.431654 -0.18623,-0.431654 -0.0365,0 -3.79525,3.269012 -4.64721,4.04171 -0.65039,0.589887 -2.86777,1.959612 -3.66868,2.266228 -0.98209,0.375974 -2.34096,0.45113 -3.24779,0.179626 -0.44071,-0.131949 -0.68391,-0.419229 -0.83558,-0.98705 -0.078,-0.291778 -0.0864,-1.010871 -0.0169,-1.438906 0.22606,-1.392866 1.10049,-3.021817 2.15688,-4.018012 0.64831,-0.611372 0.97141,-0.699874 2.97284,-0.814316 0.77328,-0.04422 1.41344,-0.08692 1.42258,-0.09489 0.009,-0.008 0.13583,-0.720014 0.28154,-1.582311 0.39699,-2.349424 0.61703,-4.515721 0.69347,-6.827116 0.0663,-2.00435 -0.0808,-2.332178 -0.65951,-1.469516 -0.37177,0.554235 -0.52913,0.836118 -1.81206,3.246093 -2.09812,3.941291 -3.8165,6.947443 -5.31552,9.299075 -0.90125,1.413861 -1.31914,1.908751 -1.98563,2.351552 -1.10217,0.732267 -2.61041,1.22425 -3.75482,1.224817 -0.91711,4.44e-4 -1.35358,-0.190682 -2.0726,-0.90763 -0.78286,-0.780593 -1.20903,-1.492886 -1.44535,-2.415756 -0.16289,-0.636082 -0.25639,-0.849244 -0.39129,-0.892059 -0.35731,-0.113406 -0.85536,0.421893 -3.83049,4.11698 -2.04606,2.541189 -2.36385,2.921813 -2.79238,3.344541 -0.42569,0.419916 -0.6838,0.537782 -1.37889,0.629666 -0.60946,0.08056 -0.88334,0.06186 -0.9994,-0.06824 -0.13291,-0.149001 -0.20088,-0.515396 -0.19838,-1.069376 0.003,-0.653833 0.11988,-1.215219 0.41228,-1.979369 0.42155,-1.101665 0.45729,-1.204801 0.42775,-1.234346 -0.0363,-0.03633 -0.61121,0.388162 -1.71127,1.263611 -2.30776,1.836562 -3.08991,2.168707 -4.65288,1.975879 -0.99641,-0.12293 -1.25001,-0.0097 -3.65955,1.63426 -2.63907,1.800533 -4.17944,2.459184 -5.75121,2.459184 -0.82211,0 -1.27562,-0.151099 -1.65325,-0.550832 -0.46458,-0.491748 -0.69918,-1.022341 -0.76599,-1.732395 -0.0677,-0.719522 -0.14701,-0.812069 -0.44262,-0.516462 -0.22717,0.227166 -0.40876,0.525075 -1.11285,1.825684 -1.28114,2.366549 -2.034131,3.495256 -2.845479,4.265294 -0.468372,0.444522 -0.797535,0.620281 -1.167564,0.623433 -0.294867,0.0025 -0.523309,-0.0901 -0.756718,-0.306787 -0.22152,-0.205651 -0.279327,-0.362722 -0.278439,-0.756564 0.0011,-0.502771 0.163589,-1.189448 1.083093,-4.57799 2.017574,-7.43517 3.130577,-11.884188 3.237727,-12.942209 0.0378,-0.373477 0.009,-0.424631 -0.24254,-0.425998 -0.3628,-0.002 -1.920559,0.379601 -8.346309,2.044436 -1.953546,0.50614 -4.839466,1.253291 -6.413155,1.660336 -1.57369,0.407045 -3.01665,0.784978 -3.206578,0.839852 -0.910086,0.262941 -1.166518,0.350668 -1.127576,0.385746 0.0628,0.05656 0.504,0.129802 1.793558,0.297734 1.541668,0.200763 3.128524,0.446948 4.809866,0.746202 1.777095,0.316297 2.282368,0.380404 3.305242,0.419358 1.767761,0.06732 3.445729,-0.212588 4.258019,-0.710302 0.619669,-0.379688 0.996392,-0.340485 0.995351,0.103579 -0.0021,0.907721 -1.157264,1.550159 -3.214969,1.788016 -0.567455,0.06559 -0.992751,0.07645 -2.161731,0.05518 -1.623792,-0.02955 -2.377816,-0.104379 -4.289138,-0.425673 -2.863252,-0.481314 -5.298742,-0.646632 -11.077769,-0.751947 l -0.690648,-0.01259 -0.471958,0.911209 c -0.748426,1.444982 -1.594775,2.738445 -3.18427,4.866462 -1.878093,2.514391 -3.82417,4.810791 -5.493011,6.481828 -1.647347,1.649519 -2.601634,2.407858 -3.479743,2.765243 -0.32347,0.13165 -0.461392,0.160697 -0.764646,0.161039 -0.748262,8.44e-4 -1.081736,-0.342486 -1.341622,-1.381275 -0.09595,-0.383522 -0.109685,-0.568104 -0.109704,-1.474379 -1.5e-5,-0.897855 0.0178,-1.142059 0.13367,-1.831712 0.147783,-0.879633 0.170762,-1.300868 0.07097,-1.300868 -0.109009,0 -0.636486,0.529665 -1.768611,1.775951 -2.091448,2.302346 -3.574051,3.685209 -4.377669,4.083158 -0.312414,0.154707 -0.409322,0.179415 -0.693484,0.176812 -0.476418,-0.0044 -0.812699,-0.09888 -1.046345,-0.294078 -0.110154,-0.09203 -0.25923,-0.169412 -0.331274,-0.171957 -0.07205,-0.0025 -0.36409,-0.0081 -0.648982,-0.01233 -0.466996,-0.0069 -0.544694,-0.0217 -0.789312,-0.149846 -0.376417,-0.197194 -0.910086,-0.75926 -1.219979,-1.284904 -0.531713,-0.901888 -0.982822,-2.333451 -1.198121,-3.802145 -0.07165,-0.488794 -0.115088,-1.152026 -0.148614,-2.26927 -0.05957,-1.985287 -0.149695,-2.88592 -0.288781,-2.88592 -0.160213,0 -0.778818,0.659616 -1.480473,1.578623 -1.258178,1.647923 -1.996228,2.928548 -3.923479,6.807811 -1.324002,2.665015 -1.873537,3.868997 -2.424111,5.311003 -0.778089,2.037896 -1.257335,2.635015 -2.062958,2.570346 -0.360578,-0.02894 -0.550652,-0.109177 -0.683206,-0.28839 -0.09156,-0.123794 -0.09282,-0.201107 -0.04319,-2.663925 0.06438,-3.194627 0.0079,-4.530989 -0.220996,-5.233562 -0.1618,-0.496524 -0.328021,-0.427902 -0.655279,0.270526 -0.330761,0.705901 -0.777881,1.245552 -1.65904,2.00238 -2.521729,2.165914 -7.069557,4.538868 -11.593011,6.048969 -4.650684,1.552576 -9.056605,2.615901 -12.258993,2.958591 -0.692612,0.07412 -2.8518216,0.133295 -3.4039055,0.09329 z M 54.668515,41.927778 c 0.492786,-0.569089 0.621109,-1.307949 0.138238,-0.795957 -0.306584,0.325072 -0.57419,1.005618 -0.395431,1.005618 0.0416,0 0.15734,-0.09435 0.257193,-0.209661 z m 44.022201,-0.412589 c 0.440836,-0.500812 1.189724,-1.721134 2.236864,-3.644965 2.43189,-4.467999 3.40893,-6.432461 4.24463,-8.53443 0.51051,-1.284056 2.25565,-5.945158 2.25565,-6.024644 0,-0.279321 -0.89752,-0.187371 -2.14594,0.219851 -0.57765,0.188421 -1.35558,0.496832 -1.56965,0.622288 -0.6576,0.385377 -1.04394,1.055508 -1.5804,2.741299 -0.3262,1.025039 -0.50621,1.666657 -1.36307,4.858473 -0.35692,1.329496 -0.956709,3.549434 -1.33287,4.933196 -1.055586,3.883135 -1.286094,4.86543 -1.185743,5.052941 0.07168,0.133932 0.169036,0.08443 0.440529,-0.224009 z M 26.39268,40.529682 c 0.327139,-0.08477 1.178599,-0.41942 1.147154,-0.450866 -0.01057,-0.01057 -0.226931,-0.02002 -0.480809,-0.021 -0.544851,-0.0021 -0.990666,0.118617 -1.312797,0.355515 -0.11519,0.08471 -0.209437,0.163201 -0.209437,0.17442 0,0.0519 0.58456,0.01224 0.855889,-0.05807 z m 80.68496,-2.245436 c 0.58176,-0.154791 1.4592,-0.639214 2.89064,-1.595863 2.62098,-1.75163 3.27048,-2.317567 3.73924,-3.258139 0.0946,-0.189871 0.23316,-0.500616 0.30785,-0.690544 0.19137,-0.486646 0.57678,-1.246881 0.92535,-1.825283 0.7862,-1.304579 1.68169,-2.228487 2.64953,-2.733626 0.4759,-0.248384 0.87587,-0.349622 1.38129,-0.349622 0.79193,0 1.38666,0.253609 2.3926,1.020283 0.35272,0.268825 0.66501,0.503229 0.69397,0.520897 0.029,0.01767 0.32865,-0.240538 0.66598,-0.573792 0.6766,-0.668423 0.99898,-0.870207 1.45002,-0.907611 0.31835,-0.0264 0.53027,0.0723 0.61992,0.288723 0.0564,0.136273 0.0508,0.203106 -0.0452,0.532645 -0.17487,0.60055 -0.59986,1.62507 -1.31028,3.158711 -1.00516,2.169893 -1.31596,3.014615 -1.10919,3.014615 0.29003,0 1.17875,-0.986982 4.26436,-4.735868 2.70464,-3.286017 4.35199,-5.188798 5.05043,-5.833505 0.43471,-0.401261 0.66017,-0.379784 0.76512,0.07288 0.0519,0.223884 -0.1093,0.853005 -0.4391,1.713548 -0.17196,0.448707 -0.35825,0.995011 -0.41396,1.214009 -0.3898,1.532143 -0.13714,2.871581 0.70593,3.742443 0.34923,0.360734 0.75756,0.635783 1.06809,0.719451 0.8084,0.217817 3.08266,-0.518749 3.7643,-1.219146 0.35631,-0.366112 1.24216,-1.696693 2.3583,-3.542262 0.62212,-1.02868 1.46439,-2.497982 3.61977,-6.314492 0.78148,-1.383761 1.69752,-2.993216 2.03564,-3.576567 0.86395,-1.490549 1.06077,-1.852956 1.2102,-2.228352 0.072,-0.18099 0.13098,-0.345283 0.13098,-0.365097 0,-0.110329 -1.73553,0.131327 -4.26721,0.594167 -4.88077,0.892298 -10.96146,2.18435 -16.72354,3.553493 -0.86824,0.206305 -2.52209,0.583766 -3.67523,0.838802 -1.15313,0.255036 -2.85139,0.643518 -3.77389,0.863295 -2.23186,0.531714 -3.53848,0.819153 -5.37719,1.182913 -0.84111,0.1664 -1.56597,0.313127 -1.61081,0.32606 -0.0795,0.02293 -1.47032,2.485584 -2.5327,4.484462 -3.06903,5.774412 -4.29794,9.518587 -3.72143,11.338272 0.15894,0.501646 0.31007,0.618553 0.87259,0.67498 0.50144,0.0503 0.98774,0.01482 1.43761,-0.104882 z m 9.40809,-4.168973 c 0.58897,-0.396127 1.76566,-1.473188 2.74118,-2.509106 1.45656,-1.546738 1.49965,-1.818077 0.34988,-2.20352 -0.23792,-0.07976 -0.52357,-0.157737 -0.63476,-0.17328 -1.09475,-0.153025 -2.98451,1.84061 -3.32556,3.508348 -0.10564,0.516581 0.0517,1.128241 0.35617,1.384418 0.18393,0.154769 0.27457,0.153557 0.51309,-0.0069 z m 26.33781,-1.161451 c 1.07126,-0.351604 2.8211,-1.463015 3.8339,-2.435099 0.39904,-0.383004 0.49878,-0.526937 0.49352,-0.712189 -0.0121,-0.426878 -0.65802,-1.130269 -1.44451,-1.573131 -0.65728,-0.370104 -1.24563,-0.455155 -1.7976,-0.259862 -1.54465,0.54651 -3.20365,3.124107 -2.86402,4.449825 0.18442,0.71988 0.71735,0.878813 1.77871,0.530456 z M 111.19753,18.90319 c 0.5232,-0.848695 1.8905,-3.442058 4.35714,-8.26421 2.56439,-5.013251 3.65234,-7.291198 3.9548,-8.280634 0.13767,-0.450348 0.13583,-0.574454 -0.009,-0.574454 -0.13658,0 -0.5327,0.319723 -0.74883,0.604417 -0.44076,0.580584 -1.32896,2.219852 -2.88,5.315418 -2.89289,5.773604 -5.18836,10.902981 -5.18836,11.593744 0,0.313697 0.14672,0.201096 0.51376,-0.394281 z"
       style="fill:#eee8d5;stroke-width:0.049332;fill-opacity:1" />
  </g>
</svg>
